# Blender v2.82 (sub 7) OBJ File: ''
# www.blender.org
mtllib ship.mtl
o Cube
v -0.905756 0.697180 -3.005912
v -1.000000 -0.738906 -3.005912
v -0.905756 0.697180 1.000000
v -1.000000 -0.758465 1.000000
v -1.000000 -0.738906 0.000000
v -1.000000 0.000000 1.000000
v -4.335862 0.000000 -3.005912
v -0.905756 0.697180 0.000000
v -1.000000 0.000000 1.000690
v -1.000000 -0.738906 0.500000
v -0.500000 -1.000000 -3.005912
v -1.000000 0.500000 1.000000
v -1.000000 -0.500000 -3.005912
v -0.500000 1.000000 1.000000
v -0.905756 0.697180 -0.500000
v -1.000000 -0.738906 -0.500000
v -1.000000 -0.500000 1.000000
v -1.000000 0.500000 -3.005912
v -0.500000 -1.000000 1.000000
v -0.905756 0.697180 0.500000
v -0.500000 1.000000 -3.005912
v -0.500000 0.000000 -4.045507
v -0.500000 -1.000000 0.000000
v -4.335862 0.000000 -2.106393
v -1.000000 0.000000 0.500000
v -1.000000 -0.500000 0.000000
v -1.000000 0.500000 0.000000
v -0.500000 0.000000 2.583487
v -0.500000 1.000000 0.000000
v -0.500000 1.000000 -0.500000
v -0.500000 -0.500000 2.583487
v -1.000000 0.500000 0.500000
v -1.000000 -0.500000 0.500000
v -1.000000 -0.500000 -0.500000
v -0.500000 -1.000000 -0.500000
v -0.500000 -1.000000 0.500000
v -0.500000 0.500000 -4.045507
v -0.500000 -0.500000 -4.045507
v -1.000000 0.500000 -0.500000
v -0.500000 0.500000 2.583487
v -0.500000 1.000000 0.500000
v 0.905756 0.697180 -3.005912
v 1.000000 -0.738906 -3.005912
v 0.905756 0.697180 1.000000
v 1.000000 -0.758465 1.000000
v 1.000000 -0.738906 0.000000
v 0.000000 -1.000000 -3.005912
v 1.000000 0.000000 1.000000
v 4.335862 0.000000 -3.005912
v 0.000000 1.000000 1.000000
v 0.000000 -1.000000 1.000000
v 0.905756 0.697180 0.000000
v 0.000000 1.000000 -3.005912
v 0.000000 0.000000 -5.164025
v 0.000000 -1.000000 0.000000
v 1.000000 0.000000 1.000690
v 0.000000 0.000000 6.951903
v 0.000000 1.000000 0.000000
v 1.000000 -0.738906 0.500000
v 0.500000 -1.000000 -3.005912
v 1.000000 0.500000 1.000000
v 1.000000 -0.500000 -3.005912
v 0.500000 1.000000 1.000000
v 0.905756 0.697180 -0.500000
v 1.000000 -0.738906 -0.500000
v 1.000000 -0.500000 1.000000
v 1.000000 0.500000 -3.005912
v 0.500000 -1.000000 1.000000
v 0.905756 0.697180 0.500000
v 0.500000 1.000000 -3.005912
v 0.500000 0.000000 -4.045507
v 0.000000 -0.500000 -4.045507
v 0.000000 0.500000 -4.045507
v 0.000000 -1.000000 0.500000
v 0.000000 -1.000000 -0.500000
v 0.500000 -1.000000 0.000000
v 4.335862 0.000000 -2.106393
v 1.000000 0.000000 0.500000
v 1.000000 -0.500000 0.000000
v 1.000000 0.500000 0.000000
v 0.500000 0.000000 2.583487
v 0.000000 -0.238906 2.583487
v 0.000000 0.500000 2.583487
v 0.000000 1.000000 0.500000
v 0.000000 1.000000 -0.500000
v 0.500000 1.000000 0.000000
v 0.500000 1.000000 -0.500000
v 0.500000 -0.500000 2.583487
v 1.000000 0.500000 0.500000
v 1.000000 -0.500000 0.500000
v 1.000000 -0.500000 -0.500000
v 0.500000 -1.000000 -0.500000
v 0.500000 -1.000000 0.500000
v 0.500000 0.500000 -4.045507
v 0.500000 -0.500000 -4.045507
v 1.000000 0.500000 -0.500000
v 0.500000 0.500000 2.583487
v 0.500000 1.000000 0.500000
vt 0.812500 0.687500
vt 0.875000 0.687500
vt 0.875000 0.750000
vt 0.812500 0.750000
vt 0.562500 0.937500
vt 0.625000 0.937500
vt 0.625000 1.000000
vt 0.562500 1.000000
vt 0.562500 0.187500
vt 0.625000 0.187500
vt 0.625000 0.250000
vt 0.562500 0.250000
vt 0.437500 0.312500
vt 0.500000 0.312500
vt 0.500000 0.375000
vt 0.437500 0.375000
vt 0.562500 0.312500
vt 0.625000 0.312500
vt 0.625000 0.375000
vt 0.562500 0.375000
vt 0.187500 0.687500
vt 0.250000 0.687500
vt 0.250000 0.750000
vt 0.187500 0.750000
vt 0.187500 0.562500
vt 0.250000 0.562500
vt 0.250000 0.625000
vt 0.187500 0.625000
vt 0.437500 0.187500
vt 0.500000 0.187500
vt 0.500000 0.250000
vt 0.437500 0.250000
vt 0.437500 0.062500
vt 0.500000 0.062500
vt 0.500000 0.125000
vt 0.437500 0.125000
vt 0.562500 0.062500
vt 0.625000 0.062500
vt 0.625000 0.125000
vt 0.562500 0.125000
vt 0.437500 0.937500
vt 0.500000 0.937500
vt 0.500000 1.000000
vt 0.437500 1.000000
vt 0.812500 0.562500
vt 0.875000 0.562500
vt 0.875000 0.625000
vt 0.812500 0.625000
vt 0.750000 0.562500
vt 0.750000 0.625000
vt 0.750000 0.500000
vt 0.812500 0.500000
vt 0.875000 0.500000
vt 0.375000 0.937500
vt 0.375000 1.000000
vt 0.375000 0.875000
vt 0.437500 0.875000
vt 0.500000 0.875000
vt 0.500000 0.000000
vt 0.562500 0.000000
vt 0.625000 0.000000
vt 0.375000 0.062500
vt 0.375000 0.125000
vt 0.375000 0.000000
vt 0.437500 0.000000
vt 0.375000 0.187500
vt 0.375000 0.250000
vt 0.125000 0.562500
vt 0.125000 0.625000
vt 0.125000 0.500000
vt 0.187500 0.500000
vt 0.250000 0.500000
vt 0.125000 0.687500
vt 0.125000 0.750000
vt 0.375000 0.312500
vt 0.375000 0.375000
vt 0.562500 0.875000
vt 0.625000 0.875000
vt 0.750000 0.687500
vt 0.750000 0.750000
vt 0.812500 0.687500
vt 0.812500 0.750000
vt 0.875000 0.750000
vt 0.875000 0.687500
vt 0.562500 0.937500
vt 0.562500 1.000000
vt 0.625000 1.000000
vt 0.625000 0.937500
vt 0.562500 0.187500
vt 0.562500 0.250000
vt 0.625000 0.250000
vt 0.625000 0.187500
vt 0.437500 0.312500
vt 0.500000 0.312500
vt 0.562500 0.312500
vt 0.625000 0.312500
vt 0.187500 0.687500
vt 0.187500 0.750000
vt 0.187500 0.562500
vt 0.187500 0.625000
vt 0.437500 0.187500
vt 0.437500 0.250000
vt 0.500000 0.250000
vt 0.500000 0.187500
vt 0.437500 0.062500
vt 0.437500 0.125000
vt 0.500000 0.125000
vt 0.500000 0.062500
vt 0.562500 0.062500
vt 0.562500 0.125000
vt 0.625000 0.125000
vt 0.625000 0.062500
vt 0.437500 0.937500
vt 0.437500 1.000000
vt 0.500000 1.000000
vt 0.500000 0.937500
vt 0.812500 0.562500
vt 0.812500 0.625000
vt 0.875000 0.625000
vt 0.875000 0.562500
vt 0.812500 0.500000
vt 0.875000 0.500000
vt 0.375000 0.937500
vt 0.375000 1.000000
vt 0.500000 0.000000
vt 0.562500 0.000000
vt 0.625000 0.000000
vt 0.375000 0.062500
vt 0.375000 0.125000
vt 0.375000 0.000000
vt 0.437500 0.000000
vt 0.375000 0.187500
vt 0.375000 0.250000
vt 0.125000 0.562500
vt 0.125000 0.625000
vt 0.125000 0.500000
vt 0.187500 0.500000
vt 0.125000 0.687500
vt 0.125000 0.750000
vt 0.375000 0.312500
vn -0.5981 0.8014 0.0000
vn -0.6828 0.6828 0.2600
vn -0.9022 0.4312 0.0000
vn -0.5977 -0.5977 -0.5344
vn 0.0000 0.9012 -0.4334
vn 0.0000 -1.0000 0.0000
vn -0.1482 -0.9890 0.0000
vn 1.0000 0.0000 0.0000
vn -0.9536 0.0000 0.3011
vn 0.0000 1.0000 0.0000
vn -0.6697 -0.6697 0.3208
vn 0.2357 -0.9029 0.3595
vn -0.4262 -0.8920 0.1509
vn -1.0000 0.0000 0.0000
vn -0.3234 -0.8977 0.2991
vn -0.4629 -0.8864 0.0000
vn -0.4490 -0.8933 -0.0175
vn -0.5977 0.5977 -0.5344
vn -0.2464 0.8218 -0.5137
vn -0.6542 0.6542 -0.3794
vn 0.0000 -0.9012 -0.4334
vn -0.6318 -0.6318 -0.4491
vn -0.2464 -0.8218 -0.5137
vn -0.1482 0.9890 0.0000
vn -0.3234 0.8977 0.2991
vn -0.6980 0.6980 0.1598
vn 0.0000 0.9536 0.3011
vn 0.5981 0.8014 0.0000
vn 0.6828 0.6828 0.2600
vn 0.9022 0.4312 0.0000
vn 0.5977 -0.5977 -0.5344
vn 0.1482 -0.9890 0.0000
vn 0.9536 0.0000 0.3011
vn 0.6697 -0.6697 0.3208
vn -0.2357 -0.9029 0.3595
vn 0.4262 -0.8920 0.1509
vn 0.3234 -0.8977 0.2991
vn 0.4629 -0.8864 0.0000
vn 0.4490 -0.8933 -0.0175
vn 0.5977 0.5977 -0.5344
vn 0.2464 0.8218 -0.5137
vn 0.6542 0.6542 -0.3794
vn 0.6318 -0.6318 -0.4491
vn 0.2464 -0.8218 -0.5137
vn 0.1482 0.9890 0.0000
vn 0.3234 0.8977 0.2991
vn 0.6980 0.6980 0.1598
usemtl Material
s off
f 41/1/1 20/2/1 3/3/1 14/4/1
f 40/5/2 14/6/2 3/7/2 12/8/2
f 39/9/3 15/10/3 1/11/3 18/12/3
f 38/13/4 22/14/4 54/15/4 72/16/4
f 37/17/5 21/18/5 53/19/5 73/20/5
f 36/21/6 74/22/6 51/23/6 19/24/6
f 35/25/6 75/26/6 55/27/6 23/28/6
f 34/29/7 24/30/7 7/31/7 13/32/7
f 33/33/8 25/34/8 9/35/8 26/36/8
f 32/37/3 20/38/3 8/39/3 27/40/3
f 31/41/9 28/42/9 6/43/9 17/44/9
f 30/45/1 15/46/1 8/47/1 29/48/1
f 85/49/10 30/45/10 29/48/10 58/50/10
f 53/51/10 21/52/10 30/45/10 85/49/10
f 21/52/1 1/53/1 15/46/1 30/45/1
f 19/54/11 31/41/11 17/44/11 4/55/11
f 51/56/12 82/57/12 31/41/12 19/54/12
f 82/57/13 57/58/13 28/42/13 31/41/13
f 25/34/8 32/37/8 27/40/8 9/35/8
f 6/59/14 12/60/14 32/37/14 25/34/14
f 12/60/3 3/61/3 20/38/3 32/37/3
f 10/62/14 33/33/14 26/36/14 5/63/14
f 4/64/14 17/65/14 33/33/14 10/62/14
f 17/65/14 6/59/14 25/34/14 33/33/14
f 16/66/14 34/29/14 13/32/14 2/67/14
f 5/63/14 26/36/14 34/29/14 16/66/14
f 26/36/15 9/35/15 24/30/15 34/29/15
f 16/68/16 35/25/16 23/28/16 5/69/16
f 2/70/16 11/71/16 35/25/16 16/68/16
f 11/71/6 47/72/6 75/26/6 35/25/6
f 10/73/17 36/21/17 19/24/17 4/74/17
f 5/69/16 23/28/16 36/21/16 10/73/16
f 23/28/6 55/27/6 74/22/6 36/21/6
f 22/14/18 37/17/18 73/20/18 54/15/18
f 7/31/19 18/12/19 37/17/19 22/14/19
f 18/12/20 1/11/20 21/18/20 37/17/20
f 11/75/21 38/13/21 72/16/21 47/76/21
f 2/67/22 13/32/22 38/13/22 11/75/22
f 13/32/23 7/31/23 22/14/23 38/13/23
f 24/30/24 39/9/24 18/12/24 7/31/24
f 9/35/25 27/40/25 39/9/25 24/30/25
f 27/40/3 8/39/3 15/10/3 39/9/3
f 28/42/9 40/5/9 12/8/9 6/43/9
f 57/58/26 83/77/26 40/5/26 28/42/26
f 83/77/27 50/78/27 14/6/27 40/5/27
f 84/79/10 41/1/10 14/4/10 50/80/10
f 58/50/10 29/48/10 41/1/10 84/79/10
f 29/48/1 8/47/1 20/2/1 41/1/1
f 98/81/28 63/82/28 44/83/28 69/84/28
f 97/85/29 61/86/29 44/87/29 63/88/29
f 96/89/30 67/90/30 42/91/30 64/92/30
f 95/93/31 72/16/31 54/15/31 71/94/31
f 94/95/5 73/20/5 53/19/5 70/96/5
f 93/97/6 68/98/6 51/23/6 74/22/6
f 92/99/6 76/100/6 55/27/6 75/26/6
f 91/101/32 62/102/32 49/103/32 77/104/32
f 90/105/14 79/106/14 56/107/14 78/108/14
f 89/109/30 80/110/30 52/111/30 69/112/30
f 88/113/33 66/114/33 48/115/33 81/116/33
f 87/117/28 86/118/28 52/119/28 64/120/28
f 85/49/10 58/50/10 86/118/10 87/117/10
f 53/51/10 85/49/10 87/117/10 70/121/10
f 70/121/28 87/117/28 64/120/28 42/122/28
f 68/123/34 45/124/34 66/114/34 88/113/34
f 51/56/35 68/123/35 88/113/35 82/57/35
f 82/57/36 88/113/36 81/116/36 57/58/36
f 78/108/14 56/107/14 80/110/14 89/109/14
f 48/125/8 78/108/8 89/109/8 61/126/8
f 61/126/30 89/109/30 69/112/30 44/127/30
f 59/128/8 46/129/8 79/106/8 90/105/8
f 45/130/8 59/128/8 90/105/8 66/131/8
f 66/131/8 90/105/8 78/108/8 48/125/8
f 65/132/8 43/133/8 62/102/8 91/101/8
f 46/129/8 65/132/8 91/101/8 79/106/8
f 79/106/37 91/101/37 77/104/37 56/107/37
f 65/134/38 46/135/38 76/100/38 92/99/38
f 43/136/38 65/134/38 92/99/38 60/137/38
f 60/137/6 92/99/6 75/26/6 47/72/6
f 59/138/39 45/139/39 68/98/39 93/97/39
f 46/135/38 59/138/38 93/97/38 76/100/38
f 76/100/6 93/97/6 74/22/6 55/27/6
f 71/94/40 54/15/40 73/20/40 94/95/40
f 49/103/41 71/94/41 94/95/41 67/90/41
f 67/90/42 94/95/42 70/96/42 42/91/42
f 60/140/21 47/76/21 72/16/21 95/93/21
f 43/133/43 60/140/43 95/93/43 62/102/43
f 62/102/44 95/93/44 71/94/44 49/103/44
f 77/104/45 49/103/45 67/90/45 96/89/45
f 56/107/46 77/104/46 96/89/46 80/110/46
f 80/110/30 96/89/30 64/92/30 52/111/30
f 81/116/33 48/115/33 61/86/33 97/85/33
f 57/58/47 81/116/47 97/85/47 83/77/47
f 83/77/27 97/85/27 63/88/27 50/78/27
f 84/79/10 50/80/10 63/82/10 98/81/10
f 58/50/10 84/79/10 98/81/10 86/118/10
f 86/118/28 98/81/28 69/84/28 52/119/28
